<svg width="24" height="24" viewBox="0 0 24 24" fill="none" xmlns="http://www.w3.org/2000/svg">
<g clip-path="url(#clip0_6_95)">
<mask id="mask0_6_95" style="mask-type:luminance" maskUnits="userSpaceOnUse" x="0" y="0" width="24" height="24">
<path d="M0.191772 0.191772H23.8079V23.8079H0.191772V0.191772Z" fill="white"/>
</mask>
<g mask="url(#mask0_6_95)">
<path fill-rule="evenodd" clip-rule="evenodd" d="M6.51069 1.16307C6.58027 1.71441 6.82582 3.91735 6.5019 5.21316C6.4488 5.4241 6.57716 5.63778 6.7881 5.69054C6.81996 5.69841 6.85237 5.70244 6.88368 5.70244C7.06019 5.70244 7.22078 5.58269 7.26509 5.40398C7.46632 4.60068 7.47383 3.53282 7.42933 2.6391C8.05043 4.0371 8.06416 5.29265 8.06416 5.30915C8.06489 5.52613 8.24086 5.70209 8.45784 5.70209H8.45857C8.67592 5.70154 8.85133 5.52576 8.85133 5.30878C8.85133 5.22859 8.83595 3.7156 8.03467 2.07567C9.60278 3.33966 9.63775 5.21353 9.6385 5.30967C9.63905 5.52647 9.81538 5.70244 10.0322 5.70244C10.2499 5.70244 10.4259 5.5261 10.4259 5.30876C10.4259 5.27489 10.3828 1.93868 7.1102 0.649292L6.76816 0.307249C6.61453 0.153443 6.36532 0.153443 6.21151 0.307249C6.05807 0.460873 6.05807 0.709896 6.21151 0.86389L6.51069 1.16307ZM20.2657 4.12791H22.2337V5.30874C22.2337 5.52609 22.41 5.70242 22.6274 5.70242C22.8451 5.70242 23.0209 5.52609 23.0209 5.30874V4.12791C23.0209 3.69432 22.6682 3.34112 22.2337 3.34074H20.2657C20.0485 3.34074 19.8722 3.51707 19.8722 3.73442C19.8722 3.95158 20.0485 4.12791 20.2657 4.12791ZM11.6065 5.70244C11.8242 5.70244 12.0001 5.52611 12.0001 5.30877V2.5536H16.7233V5.30877C16.7233 5.52611 16.8996 5.70244 17.1169 5.70244C17.3345 5.70244 17.5104 5.52611 17.5104 5.30877V2.5536H18.2976V5.30877C18.2976 5.52611 18.4739 5.70244 18.6913 5.70244C18.909 5.70244 19.085 5.52611 19.085 5.30877V2.5536C19.085 2.11982 18.7323 1.7668 18.2976 1.76643H11.9995C11.5657 1.76679 11.2127 2.11982 11.2127 2.5536V5.30877C11.2127 5.52611 11.389 5.70244 11.6062 5.70244H11.6065ZM3.341 11.6063C3.341 11.389 3.16504 11.2127 2.94733 11.2127H0.585814C0.368469 11.2127 0.192139 11.389 0.192139 11.6063C0.192139 11.8235 0.368469 11.9998 0.585814 11.9998H2.94733C3.16504 11.9998 3.341 11.8235 3.341 11.6063ZM1.76666 13.9679C1.76666 14.1852 1.94299 14.3615 2.16015 14.3615H3.53786C3.75557 14.3615 3.93135 14.1852 3.93135 13.9679C3.93135 13.7507 3.75557 13.5744 3.53786 13.5744H2.16015C1.94299 13.5744 1.76666 13.7507 1.76666 13.9679ZM4.12818 15.9359H1.373C1.15584 15.9359 0.979512 16.1122 0.979512 16.3295C0.979512 16.5467 1.15584 16.723 1.373 16.723H4.12818C4.34589 16.723 4.52185 16.5467 4.52185 16.3295C4.52185 16.1122 4.34589 15.9359 4.12818 15.9359ZM9.9163 11.2127L10.1525 13.5744H13.5748V11.2127H9.9163ZM14.3619 11.2127V13.5744H17.7847L18.0206 11.2127H14.3619ZM6.3913 10.4256H9.04616L8.85335 8.4969C8.83174 8.28047 8.98958 8.08747 9.20601 8.06587C9.42482 8.04389 9.61543 8.2021 9.63667 8.41853L9.83735 10.4255H13.5746V8.45753C13.5746 8.24018 13.7509 8.06385 13.9682 8.06385C14.1859 8.06385 14.3617 8.24018 14.3617 8.45753V10.4255H18.0991L18.2998 8.41853C18.3217 8.2021 18.512 8.04353 18.7308 8.06587C18.9472 8.08747 19.1047 8.28047 19.0831 8.4969L18.8901 10.4256H21.0529C21.2706 10.4256 21.4466 10.6019 21.4466 10.8191C21.4466 11.0364 21.2706 11.2127 21.0529 11.2127H18.8116L18.5754 13.5744H20.4626C20.6803 13.5744 20.8563 13.7508 20.8563 13.9679C20.8563 14.1853 20.6803 14.3616 20.4626 14.3616H18.4967L18.296 16.369C18.2758 16.5717 18.1046 16.7231 17.9047 16.7231C17.8917 16.7231 17.8787 16.7227 17.8653 16.7211C17.6489 16.6995 17.491 16.5067 17.5126 16.2906L17.7055 14.3616H14.3618V16.3296C14.3618 16.5468 14.186 16.7231 13.9683 16.7231C13.7509 16.7231 13.5746 16.5468 13.5746 16.3296V14.3616H10.2311L10.4239 16.2906C10.4455 16.5067 10.2881 16.6995 10.0716 16.7211C10.0583 16.7227 10.0449 16.7231 10.0319 16.7231C9.83193 16.7231 9.6611 16.5717 9.64059 16.369L9.43991 14.3616H6.88339C6.66623 14.3616 6.4899 14.1853 6.4899 13.9679C6.4899 13.7508 6.66623 13.5744 6.88339 13.5744H9.36116L9.12532 11.2127H6.39138C6.17422 11.2127 5.99789 11.0364 5.99789 10.8191C5.99789 10.6019 6.17422 10.4256 6.39138 10.4256H6.3913ZM20.2658 19.0848H9.24505C8.65419 19.0848 8.22407 19.8538 8.10594 20.0897C8.00871 20.2841 8.08745 20.5198 8.28154 20.617C8.33812 20.6458 8.39836 20.6592 8.4575 20.6592C8.60143 20.6592 8.7404 20.5797 8.80962 20.4424C8.93998 20.1836 9.16429 19.9004 9.24504 19.872H20.2658C20.4835 19.872 20.6595 19.6956 20.6595 19.4783C20.6595 19.2611 20.4835 19.0848 20.2658 19.0848ZM19.8723 22.2335C19.8723 21.7993 19.5193 21.4463 19.0852 21.4463C18.6514 21.4463 18.2978 21.7993 18.2978 22.2335C18.2978 22.6676 18.6514 23.0208 19.0852 23.0208C19.5193 23.0208 19.8723 22.6676 19.8723 22.2335ZM20.6595 22.2335C20.6595 23.1017 19.9535 23.808 19.0852 23.808C18.2169 23.808 17.5106 23.1018 17.5106 22.2335C17.5106 21.3657 18.2169 20.6591 19.0852 20.6591C19.9535 20.6591 20.6595 21.3657 20.6595 22.2335ZM8.0642 22.2335C8.0642 21.7993 7.71117 21.4463 7.27703 21.4463C6.84325 21.4463 6.48986 21.7993 6.48986 22.2335C6.48986 22.6676 6.84325 23.0208 7.27703 23.0208C7.71117 23.0208 8.0642 22.6676 8.0642 22.2335ZM8.85137 22.2335C8.85137 23.1017 8.14534 23.808 7.27703 23.808C6.40872 23.808 5.70268 23.1018 5.70268 22.2335C5.70268 21.3657 6.40872 20.6591 7.27703 20.6591C8.14534 20.6591 8.85137 21.3657 8.85137 22.2335ZM23.8022 6.95363C23.7381 7.30831 22.2183 15.6541 21.8204 16.848C21.4383 17.9944 20.379 18.2977 19.8725 18.2977H7.67097C6.26289 18.2977 5.76465 17.3336 5.7445 17.2928C5.72728 17.2585 5.71538 17.2215 5.70879 17.1833L3.35257 3.43998C3.25974 3.18455 2.94681 2.55357 2.55406 2.55357H1.37323C1.19617 2.55833 0.979737 2.63029 0.979737 2.94725C0.979737 3.26402 1.19617 3.33598 1.37799 3.34074H2.16038C2.37809 3.34074 2.55406 3.51707 2.55406 3.73442C2.55406 3.95158 2.37809 4.12791 2.16038 4.12791H1.37321C0.8986 4.12791 0.192382 3.81352 0.192382 2.94722C0.192382 2.08078 0.8986 1.76639 1.37321 1.76639H2.55404C3.59518 1.76639 4.05915 3.06811 4.10841 3.21642C4.11464 3.23528 4.11977 3.25469 4.12288 3.27429L6.47192 16.9787C6.55927 17.1059 6.89618 17.5104 7.67089 17.5104H19.8725C19.9067 17.51 20.7777 17.4864 21.0736 16.5989C21.3626 15.731 22.3773 10.3692 22.943 7.2769H5.7028C5.48545 7.2769 5.30912 7.10057 5.30912 6.8834C5.30912 6.66606 5.48545 6.48973 5.7028 6.48973H23.415C23.5318 6.48973 23.6424 6.54173 23.7173 6.63145C23.792 6.7208 23.8231 6.83891 23.8023 6.95372L23.8022 6.95363Z" fill="black"/>
</g>
</g>
<defs>
<clipPath id="clip0_6_95">
<rect width="24" height="24" fill="white"/>
</clipPath>
</defs>
</svg>
